<svg width="22" height="26" viewBox="0 0 22 26" fill="none" xmlns="http://www.w3.org/2000/svg">
<path fill-rule="evenodd" clip-rule="evenodd" d="M16.04 0.21875C16.2048 1.728 15.6109 3.2155 14.7429 4.30875C13.8372 5.38525 12.3882 6.20825 10.977 6.10225C10.7924 4.65 11.5073 3.1055 12.3078 2.16325C13.2126 1.09375 14.7836 0.27475 16.04 0.21875ZM20.6598 8.92591C20.502 9.02083 17.8924 10.5899 17.921 13.7895C17.9547 17.6525 21.2779 18.9307 21.3176 18.9447C21.2978 19.035 20.797 20.7892 19.5508 22.5687C18.5098 24.1362 17.4194 25.6698 15.6874 25.6968C14.8641 25.7157 14.3081 25.4775 13.7288 25.2293C13.1244 24.9703 12.4946 24.7005 11.5093 24.7005C10.4653 24.7005 9.80769 24.9791 9.1736 25.2477C8.62493 25.4801 8.09383 25.7051 7.34513 25.7358C5.69544 25.7968 4.43534 24.0632 3.35664 22.5088C1.20073 19.337 -0.477742 13.5705 1.77271 9.64625C2.86308 7.722 4.85149 6.4825 6.97688 6.4495C7.91274 6.43009 8.81035 6.79341 9.59722 7.11191C10.1989 7.35543 10.7358 7.57275 11.1755 7.57275C11.5619 7.57275 12.0839 7.36409 12.6922 7.12091C13.6509 6.73768 14.8241 6.26871 16.0191 6.3955C16.8365 6.4195 19.1624 6.7205 20.663 8.924L20.6598 8.92591Z" fill="white"/>
</svg>
