<svg width="24" height="26" viewBox="0 0 24 26" fill="none" xmlns="http://www.w3.org/2000/svg">
<path d="M1.32297 0.5C1.02519 0.8 0.925934 1.3 0.925934 1.9V24C0.925934 24.6 1.12445 25.1 1.42223 25.4L1.52149 25.5L13.8296 13.1V12.9L1.32297 0.5Z" fill="url(#paint0_linear_1_2127)"/>
<path d="M17.8 17.3L13.7304 13.2V12.9L17.8 8.80005L17.8993 8.90005L22.763 11.7C24.1526 12.5 24.1526 13.8 22.763 14.6L17.8 17.3Z" fill="url(#paint1_linear_1_2127)"/>
<path d="M17.8993 17.2L13.7304 13L1.32297 25.5C1.81926 26 2.51408 26 3.40741 25.6L17.8993 17.2Z" fill="url(#paint2_linear_1_2127)"/>
<path d="M17.8993 8.80011L3.40741 0.500112C2.51408 0.000112072 1.81926 0.100112 1.32297 0.600112L13.7304 13.0001L17.8993 8.80011Z" fill="url(#paint3_linear_1_2127)"/>
<path opacity="0.2" d="M17.8 17.1001L3.40741 25.3001C2.61334 25.8001 1.91852 25.7001 1.42223 25.3001L1.32297 25.4001L1.42223 25.5001C1.91852 25.9001 2.61334 26.0001 3.40741 25.5001L17.8 17.1001Z" fill="black"/>
<path opacity="0.12" fill-rule="evenodd" clip-rule="evenodd" d="M17.8 17.1L22.763 14.3C23.3585 13.9 23.7556 13.5 23.7556 13C23.7556 13.5 23.4578 14 22.763 14.4L17.8993 17.2L17.8 17.1ZM0.943844 24.307C0.983879 24.725 1.09551 25.0708 1.32297 25.3H1.33264C1.36135 25.3354 1.39125 25.3688 1.42223 25.4V25.3H1.33264C1.13389 25.0548 0.991945 24.7114 0.943844 24.307ZM0.943844 24.307C0.931468 24.1778 0.925934 24.0417 0.925934 23.9V24C0.925934 24.1056 0.932084 24.2081 0.943844 24.307Z" fill="black"/>
<path opacity="0.25" d="M3.40742 0.600026L22.763 11.7C23.3585 12.1 23.7556 12.5 23.7556 13C23.7556 12.5 23.4578 12 22.763 11.6L3.40742 0.500026C2.01779 -0.299974 0.925934 0.300026 0.925934 1.90003V2.00003C0.925934 0.500026 2.01779 -0.199974 3.40742 0.600026Z" fill="white"/>
<defs>
<linearGradient id="paint0_linear_1_2127" x1="8.30753" y1="-14.4275" x2="-11.4332" y2="-9.12946" gradientUnits="userSpaceOnUse">
<stop stop-color="#00A0FF"/>
<stop offset="0.007" stop-color="#00A1FF"/>
<stop offset="0.26" stop-color="#00BEFF"/>
<stop offset="0.512" stop-color="#00D2FF"/>
<stop offset="0.76" stop-color="#00DFFF"/>
<stop offset="1" stop-color="#00E3FF"/>
</linearGradient>
<linearGradient id="paint1_linear_1_2127" x1="24.5834" y1="2.8693" x2="0.565623" y2="2.8693" gradientUnits="userSpaceOnUse">
<stop stop-color="#FFE000"/>
<stop offset="0.409" stop-color="#FFBD00"/>
<stop offset="0.775" stop-color="#FFA500"/>
<stop offset="1" stop-color="#FF9C00"/>
</linearGradient>
<linearGradient id="paint2_linear_1_2127" x1="1.00827" y1="6.51404" x2="-15.0132" y2="33.2133" gradientUnits="userSpaceOnUse">
<stop stop-color="#FF3A44"/>
<stop offset="1" stop-color="#C31162"/>
</linearGradient>
<linearGradient id="paint3_linear_1_2127" x1="-8.32297" y1="-2.92034" x2="-1.2244" y2="9.01975" gradientUnits="userSpaceOnUse">
<stop stop-color="#32A071"/>
<stop offset="0.069" stop-color="#2DA771"/>
<stop offset="0.476" stop-color="#15CF74"/>
<stop offset="0.801" stop-color="#06E775"/>
<stop offset="1" stop-color="#00F076"/>
</linearGradient>
</defs>
</svg>
